<svg width="18" height="17" viewBox="0 0 18 17" fill="none" xmlns="http://www.w3.org/2000/svg">
<path d="M10.8857 5.23312C11.5298 5.87719 11.8518 6.19923 11.8518 6.8433C11.8518 7.93207 8.43207 11.3518 7.34331 11.3518C6.69928 11.3518 6.37725 11.0298 5.73327 10.3858L5.73312 10.3857C5.08905 9.74162 4.12294 10.0636 2.51276 11.0298C0.902575 11.9959 0.258477 12.6399 0.580503 13.606C0.90252 14.5722 2.2893 16.3225 3.80089 16.8265C5.73308 17.4706 7.91114 16.2227 10.0588 14.7114C11.9716 13.3654 13.8654 11.4714 15.2114 9.55872C16.7226 7.41116 17.9706 5.23308 17.3265 3.3009C16.8226 1.78929 15.0722 0.402525 14.1061 0.0804991C13.1399 -0.241518 12.4959 0.40258 11.5298 2.01277C10.5637 3.62294 10.2416 4.58904 10.8857 5.23312Z" fill="#950A2B"/>
</svg>
