<svg width="170" height="38" viewBox="0 0 170 38" fill="none" xmlns="http://www.w3.org/2000/svg">
<path d="M11.9489 27.5894V35.5381H9.34377V29.4458H6.88223V35.5381H4.2771V27.5894H11.9489Z" fill="white"/>
<path d="M19.8563 35.5381H17.2512V27.5894H21.0769C23.364 27.5894 24.4615 28.6355 24.4615 30.2765C24.4615 31.9176 23.4461 33.0663 21.1589 33.0663H19.8461V35.5381H19.8563ZM19.8563 31.2099H20.9333C21.5384 31.2099 21.9794 30.9637 21.9794 30.2868C21.9794 29.5483 21.1384 29.4458 20.5846 29.4458H19.8461V31.2099H19.8563Z" fill="white"/>
<path d="M33.6105 27.5894L36.4618 35.5381H33.8669L33.5592 34.4919H30.9643L30.6669 35.5381H28.113L30.9643 27.5894H33.6105ZM33.0977 32.8304L32.2566 29.9791L31.4464 32.8304H33.0874H33.0977Z" fill="white"/>
<path d="M43.9078 30.7689H44.1334C44.9539 30.7689 45.4155 30.6048 45.4155 29.9586C45.4155 29.4971 44.9539 29.2304 44.2975 29.2304C43.7334 29.2304 43.2616 29.4766 43.1591 30.0099H40.995C41.1385 28.1535 42.7385 27.374 44.4411 27.374C46.4411 27.374 47.836 28.3381 47.836 29.6612C47.836 30.4715 47.3539 31.1176 46.677 31.4356C47.4873 31.7433 48.0411 32.2048 48.0411 33.3125C48.0411 34.8099 46.7796 35.7433 44.4001 35.7433C42.0206 35.7433 40.8309 34.8407 40.6565 32.7484H42.8514C42.9539 33.4971 43.3847 33.8868 44.2873 33.8868C45.1898 33.8868 45.6103 33.5176 45.6103 33.0458C45.6103 32.3279 44.9334 32.2048 44.1232 32.2048H43.8975V30.7586L43.9078 30.7689Z" fill="white"/>
<path d="M60.5129 27.5894V33.6817H61.2104V37.3637H58.7181V35.5278H55.0155V37.3637H52.5232V33.6817H53.1488C53.7027 32.615 53.8668 31.4047 53.8668 29.6304V27.5894H60.5232H60.5129ZM56.3488 29.4458V30.3073C56.3488 31.6201 56.2052 32.8612 55.6924 33.6817H57.8975V29.4458H56.3386H56.3488Z" fill="white"/>
<path d="M68.6256 30.3586H71.0872V27.5894H73.6923V35.5381H71.0872V32.215H68.6256V35.5381H66.0205V27.5894H68.6256V30.3586Z" fill="white"/>
<path d="M86.6567 27.5894V35.5381H84.1643V33.015L84.2977 30.9842L81.4259 35.5381H78.9849V27.5894H81.4874V30.1227L81.3541 32.1535L84.2156 27.5894H86.6567Z" fill="white"/>
<path d="M94.5641 30.1637L96.8513 27.5894H99.9077L97.0051 30.5842L100.215 35.5381H97.0872L95.1795 32.3688L94.5641 33.0253V35.5381H91.959V27.5894H94.5641V30.1637Z" fill="white"/>
<path d="M112.277 27.5894H116.072C117.856 27.5894 119.282 28.0099 119.282 29.5894C119.282 30.4099 118.749 31.0047 118.246 31.3227C119.108 31.5483 119.569 32.2868 119.569 33.1483C119.569 34.9227 118.215 35.5483 116.144 35.5483H112.267V27.5996L112.277 27.5894ZM114.882 30.7688H115.959C116.482 30.7688 116.851 30.5329 116.851 30.0714C116.851 29.456 116.338 29.4458 115.795 29.4458H114.882V30.7688ZM114.882 33.6817H116.02C116.656 33.6817 117.149 33.5483 117.149 32.9535C117.149 32.256 116.544 32.215 115.713 32.215H114.882V33.6817Z" fill="white"/>
<path d="M127.2 30.1637L129.487 27.5894H132.544L129.641 30.5842L132.851 35.5381H129.733L127.826 32.3688L127.2 33.0253V35.5381H124.595V27.5894H127.2V30.1637Z" fill="white"/>
<path d="M139.703 27.5894L140.974 30.7278L142.236 27.5894H145.036L142.103 33.7945C141.426 35.2201 140.759 35.7432 139.764 35.7432C139.333 35.7432 138.841 35.6201 138.544 35.4971V33.6919C138.697 33.7432 138.79 33.8047 139.087 33.8047C139.364 33.8047 139.549 33.6817 139.703 33.3637L136.78 27.5894H139.713H139.703Z" fill="white"/>
<path d="M154.4 30.6253C154.318 29.7945 153.805 29.3227 152.985 29.3227C152.072 29.3227 151.518 30.1022 151.518 31.6407C151.518 32.7586 151.764 33.8048 153.087 33.8048C153.928 33.8048 154.328 33.2202 154.421 32.4612H156.923C156.687 34.5125 155.221 35.7535 153.128 35.7535C150.503 35.7535 148.913 34.1433 148.913 31.5586C148.913 28.974 150.656 27.3843 152.872 27.3843C155.303 27.3843 156.656 28.5843 156.872 30.6253H154.4Z" fill="white"/>
<path d="M166.472 27.5894L169.323 35.5381H166.728L166.421 34.4919H163.826L163.528 35.5381H160.974L163.826 27.5894H166.472ZM165.959 32.8304L165.118 29.9791L164.308 32.8304H165.949H165.959Z" fill="white"/>
<path d="M7.86675 0.645996L10.9744 8.32805L14.0616 0.645996H20.9334L13.7437 15.846C12.0924 19.3332 10.4411 20.6357 8.01034 20.6357C6.95393 20.6357 5.74367 20.3383 5.00521 20.0409V15.6101C5.38469 15.7434 5.60008 15.8768 6.32828 15.8768C7.00521 15.8768 7.46675 15.5793 7.84623 14.7998L0.677002 0.656253H7.877L7.86675 0.645996Z" fill="white"/>
<path d="M50.9335 0.645996V20.1229H44.5541V5.18959H38.5233V20.1229H32.1438V0.645996H50.9335Z" fill="white"/>
<path d="M65.6207 13.487L63.5694 6.51266L61.6001 13.487H65.6309H65.6207ZM66.8617 0.645996L73.836 20.1229H67.4771L66.7181 17.5486H60.3591L59.6309 20.1229H53.3848L60.3591 0.645996H66.8514H66.8617Z" fill="white"/>
<path d="M95.7745 0.645996V20.1229H89.3951V5.18959H84.8207V10.7383C84.8207 18.5742 82.3592 20.5332 78.7079 20.5332C77.3848 20.5332 76.5233 20.4204 75.2515 20.1229V15.5793C75.631 15.7127 75.9797 15.7639 76.7079 15.7639C77.9797 15.7639 78.7079 15.2511 78.7079 10.6768V0.645996H95.7745Z" fill="white"/>
<path d="M124.944 20.1229H118.564V0.645996H124.944V20.1229ZM105.723 15.5793H108.082C109.651 15.5793 110.841 15.2511 110.841 13.7947C110.841 12.0922 109.354 11.9793 107.323 11.9793H105.723V15.5793ZM105.723 7.43574H108.759C113.672 7.43574 116.79 9.65112 116.79 13.8973C116.79 18.1434 113.733 20.1229 108.677 20.1229H99.354V0.645996H105.733V7.43574H105.723Z" fill="white"/>
<path d="M134.616 0.645999V5.67164C134.616 7.22036 135.508 7.91779 137.046 7.91779C138.287 7.91779 139.375 7.75369 139.939 7.55882V0.635742H146.318V20.1127H139.939V12.2357C138.81 12.5127 137.99 12.6665 134.616 12.6665C131.754 12.6665 128.236 10.8819 128.236 6.66651V0.635742H134.616V0.645999Z" fill="white"/>
<path d="M161.015 13.487L158.954 6.51266L156.974 13.487H161.005H161.015ZM162.256 0.645996L169.231 20.1229H162.872L162.113 17.5486H155.764L155.036 20.1229H148.79L155.774 0.645996H162.267H162.256Z" fill="white"/>
</svg>
