<svg width="41" height="40" viewBox="0 0 41 40" fill="none" xmlns="http://www.w3.org/2000/svg">
<path d="M20.0941 20.341C17.2691 20.341 14.9211 17.995 14.9211 15.219C14.9211 12.347 17.2691 10 20.0951 10C23.0171 10 25.2681 12.346 25.2681 15.219C25.263 16.5821 24.717 17.8873 23.75 18.848C22.783 19.8086 21.4741 20.346 20.1111 20.342L20.0941 20.341ZM20.0941 13.017C18.8981 13.017 17.9881 14.022 17.9881 15.22C17.9881 16.416 18.8981 17.326 20.0951 17.326C21.3401 17.326 22.2021 16.416 22.2021 15.22C22.2031 14.021 21.3401 13.017 20.0941 13.017ZM22.1541 24.603L25.0771 27.428C25.6521 28.049 25.6521 28.959 25.0771 29.534C24.4551 30.155 23.4961 30.155 23.0171 29.534L20.0951 26.661L17.2691 29.534C16.9821 29.821 16.5981 29.964 16.1661 29.964C15.8311 29.964 15.4481 29.82 15.1121 29.534C14.5371 28.959 14.5371 28.049 15.1121 27.427L18.0821 24.602C17.0095 24.2844 15.9806 23.8346 15.0191 23.263C14.3001 22.88 14.1571 21.923 14.5401 21.204C15.0191 20.486 15.8811 20.295 16.6481 20.774C17.6867 21.4078 18.8798 21.7431 20.0966 21.7431C21.3133 21.7431 22.5065 21.4078 23.5451 20.774C24.3121 20.295 25.2211 20.486 25.6521 21.204C26.0841 21.923 25.8911 22.879 25.2201 23.263C24.3111 23.838 23.2571 24.269 22.1551 24.604L22.1541 24.603Z" fill="#950A2B"/>
<circle cx="20.3333" cy="20" r="19" stroke="#950A2B" stroke-width="2"/>
</svg>
