<svg width="41" height="40" viewBox="0 0 41 40" fill="none" xmlns="http://www.w3.org/2000/svg">
<path d="M29.3373 27.3804H27.0553C26.1923 27.3804 25.9323 26.6814 24.3853 25.1334C23.0333 23.8304 22.4623 23.6684 22.1203 23.6684C21.6473 23.6684 21.5183 23.7984 21.5183 24.4494V26.5014C21.5183 27.0564 21.3383 27.3814 19.8883 27.3814C18.4815 27.2869 17.1174 26.8595 15.9082 26.1345C14.699 25.4095 13.6794 24.4076 12.9333 23.2114C11.1616 21.0064 9.92896 18.4184 9.33325 15.6534C9.33325 15.3114 9.46325 15.0014 10.1153 15.0014H12.3953C12.9813 15.0014 13.1923 15.2624 13.4223 15.8654C14.5293 19.1234 16.4183 21.9574 17.1853 21.9574C17.4793 21.9574 17.6073 21.8274 17.6073 21.0944V17.7384C17.5103 16.2074 16.6973 16.0784 16.6973 15.5244C16.7075 15.3782 16.7744 15.2418 16.8836 15.1441C16.9929 15.0465 17.1359 14.9953 17.2823 15.0014H20.8663C21.3563 15.0014 21.5183 15.2454 21.5183 15.8314V20.3614C21.5183 20.8504 21.7283 21.0124 21.8763 21.0124C22.1703 21.0124 22.3963 20.8504 22.9353 20.3124C24.0906 18.9033 25.0345 17.3335 25.7373 15.6524C25.8092 15.4505 25.9452 15.2777 26.1244 15.1604C26.3037 15.043 26.5165 14.9875 26.7303 15.0024H29.0113C29.6953 15.0024 29.8403 15.3444 29.6953 15.8324C28.8656 17.6908 27.8391 19.4549 26.6333 21.0944C26.3873 21.4694 26.2893 21.6644 26.6333 22.1044C26.8593 22.4464 27.6593 23.1144 28.1963 23.7494C28.9783 24.5294 29.6273 25.4314 30.1183 26.4194C30.3143 27.0554 29.9883 27.3804 29.3373 27.3804Z" fill="#950A2B"/>
<circle cx="20.3333" cy="20" r="19" stroke="#950A2B" stroke-width="2"/>
</svg>
